<svg width="680" height="656" viewBox="0 0 680 656" fill="none" xmlns="http://www.w3.org/2000/svg">
<rect x="52" width="586.213" height="656" rx="16" fill="#F5F8FE"/>
<mask id="mask0_364_176" style="mask-type:alpha" maskUnits="userSpaceOnUse" x="75" y="26" width="540" height="604">
<rect x="75.927" y="26.7755" width="538.359" height="602.449" rx="16" fill="#F6F6F6"/>
</mask>
<g mask="url(#mask0_364_176)">
<path d="M173.175 673.172L10.4795 226.193L92.3556 193.646L227.055 485.484L240.261 151.335L352.246 128.552L462.647 368.315L522.337 24.9444H658.621L522.337 635.201H449.441L327.947 324.377L288.858 635.201L173.175 673.172Z" fill="#1B1AFF"/>
</g>
<path d="M75 440L88.9477 501.052L150 515L88.9477 528.948L75 590L61.0523 528.948L0 515L61.0523 501.052L75 440Z" fill="#FFBB37"/>
<path d="M579.5 48L598.19 129.81L680 148.5L598.19 167.19L579.5 249L560.81 167.19L479 148.5L560.81 129.81L579.5 48Z" fill="#FFBB37"/>
</svg>
